<mxfile host="app.diagrams.net" modified="2024-01-19T13:15:04.494Z" agent="Mozilla/5.0 (Windows NT 10.0; Win64; x64) AppleWebKit/537.36 (KHTML, like Gecko) Chrome/120.0.0.0 Safari/537.36" version="22.1.21" etag="Out4s4BJqj1CbkeAcBYE" type="github">
  <diagram name="PÃ¡gina-1" id="hs-WRkCNIfKiSuykp_El">
    <mxGraphModel>
      <root>
        <mxCell id="0" />
        <mxCell id="1" parent="0" />
      </root>
    </mxGraphModel>
  </diagram>
</mxfile>
